<svg fill="none" height="17" viewBox="0 0 20 17" width="20" xmlns="http://www.w3.org/2000/svg"><g stroke="#10375c" stroke-linecap="round" stroke-linejoin="round" stroke-width="2"><path d="m16.667 4.33333h-13.33334c-.92048 0-1.66667.74619-1.66667 1.66667v8.3333c0 .9205.74619 1.6667 1.66667 1.6667h13.33334c.9205 0 1.6667-.7462 1.6667-1.6667v-8.3333c0-.92048-.7462-1.66667-1.6667-1.66667z"/><path d="m13.3337 16v-13.33333c0-.44203-.1756-.86595-.4882-1.17851-.3126-.31257-.7365-.48816-1.1785-.48816h-3.33334c-.44203 0-.86595.17559-1.17851.48816-.31256.31256-.48816.73648-.48816 1.17851v13.33333"/></g></svg>